# xmcd CD database file
#
# Track frame offsets:
#	150
#	13449
#	26858
#	42215
#	54277
#	66097
#	77351
#	91156
#	103427
#	114488
#	135888
#	149089
#	164200
#	177446
#	193357
#	209232
#	221779
#	234218
#	248293
#	263777
#	277702
#	290337
#	302401
#	316822
#
# Disc length: 4393 seconds
#
# Revision: 0
# Processed by: cddbd v1.5.2PL0 Copyright (c) Steve Scherf et al.
# Submitted via: CDex 1.51
#
DISCID=60112718
DTITLE=Charlie Parker - When Be-Bop Was King
DYEAR=2009
DGENRE=Jazz
TTITLE0=Drifting On A Reed 2:57 
TTITLE1=Bongo Beep 2:58 
TTITLE2=How Deep Is The Ocean 3:24 
TTITLE3=Another Hairdo 2:40 
TTITLE4=Bird Gets The Worm 2:37 
TTITLE5=Barbados 2:30 
TTITLE6=Parker's Mood 3:04 
TTITLE7=Marmaduke 2:43 
TTITLE8=Merry-Go-Round 2:27 
TTITLE9=The Bird 4:45 
TTITLE10=Mango Mangue 2:56 
TTITLE11=Segment 3:21 
TTITLE12=Passport 2:56 
TTITLE13=Just Friends 3:32 
TTITLE14=Star Eyes 3:30 
TTITLE15=Blues (Fast) 2:48 
TTITLE16=Au Private 2:45 
TTITLE17=She Rote 3:07 
TTITLE18=KC Blues 3:26 
TTITLE19=My Little Suede Shoes 3:05 
TTITLE20=Blues For Alice 2:48 
TTITLE21=Si Si 2:40 
TTITLE22=Swedish Schnapps 3:12 
TTITLE23=Back Home Blues 2:49
EXTD=YEAR: 2009
EXTT0=
EXTT1=
EXTT2=
EXTT3=
EXTT4=
EXTT5=
EXTT6=
EXTT7=
EXTT8=
EXTT9=
EXTT10=
EXTT11=
EXTT12=
EXTT13=
EXTT14=
EXTT15=
EXTT16=
EXTT17=
EXTT18=
EXTT19=
EXTT20=
EXTT21=
EXTT22=
EXTT23=
PLAYORDER=
